<svg width="265" height="67" viewBox="0 0 265 67" fill="none" xmlns="http://www.w3.org/2000/svg">
<path d="M51.7108 16.9085L34.7503 0H29.545L32.4246 2.87132L9.21826 26.0617V31.2648L35.0229 5.47643L51.7108 22.1131V16.9085Z" fill="white"/>
<path d="M41.3394 53.7279V19.7248L46.0301 24.4159V19.3032L35.0229 8.2915L9.21826 34.0791V39.2821L16.2084 32.2961V58.5364L17.0028 58.9488C17.3803 59.1352 17.7684 59.3114 18.166 59.4766C18.5845 59.6506 19.0079 59.8112 19.4314 59.9536L19.8836 60.1013V28.6231L26.9353 21.5764V60.9808C27.5273 60.9489 28.1175 60.8889 28.7023 60.8061C29.346 60.7142 29.9824 60.5908 30.6109 60.4374V17.9027L35.0666 13.4512L37.663 16.0487V57.1635C37.928 56.9706 38.1889 56.7716 38.4449 56.5658C39.016 56.1078 39.5689 55.6104 40.101 55.0791C40.352 54.8277 40.5912 54.5767 40.8126 54.3306C40.99 54.1388 41.1647 53.9372 41.3386 53.7279H41.3394Z" fill="#872129"/>
<path d="M51.7107 40.8331V24.9841L48.0351 21.3096V40.8331C48.0351 43.8214 47.4343 46.6798 46.3474 49.2906C45.2188 52.0036 43.5661 54.4492 41.5185 56.4964C39.4716 58.5437 37.0256 60.1967 34.3127 61.3254C31.7019 62.4118 28.8423 63.0126 25.8555 63.0126C22.8673 63.0126 20.0089 62.4122 17.398 61.3254C14.6851 60.1964 12.2395 58.5437 10.1922 56.4964C8.14496 54.4495 6.49189 52.0036 5.36326 49.2906C4.27679 46.6798 3.67602 43.8214 3.67602 40.8331V32.0015L0 28.3255V40.8331C0 47.9451 2.90967 54.4108 7.59394 59.0951C9.98297 61.4837 12.8345 63.4117 15.9949 64.7257C19.0348 65.9891 22.3671 66.6883 25.8555 66.6883C29.3436 66.6883 32.6755 65.9884 35.7159 64.7253C38.8765 63.4114 41.7285 61.483 44.1171 59.0951C46.5058 56.7057 48.4338 53.8541 49.7481 50.6938C51.0112 47.6539 51.7103 44.3215 51.7103 40.8331H51.7107Z" fill="white"/>
<path d="M82.0215 50.5923C79.8869 52.6753 77.2385 53.7166 74.0751 53.7166C70.9125 53.7166 68.2634 52.6753 66.1299 50.5923C63.9953 48.5094 62.9282 45.8864 62.9282 42.7238V26.2915H66.5925V42.3376C66.5925 44.7551 67.2931 46.6448 68.6944 48.0081C70.0957 49.3707 71.89 50.0523 74.0751 50.0523C76.2618 50.0523 78.055 49.3707 79.4559 48.0081C80.8572 46.6448 81.5589 44.7551 81.5589 42.3376V26.2915H85.2232V42.7238C85.2232 45.8864 84.1553 48.5094 82.0215 50.5923ZM89.5433 53.2924V26.2915H93.8634L108.058 47.5839V26.2915H111.723V53.2924H107.441L93.2079 31.7687V53.2924H89.5437H89.5433ZM119.707 53.2924H116.042V26.2915H119.707V53.2924Z" fill="white"/>
<path d="M137.567 32.1547C135.599 34.1344 134.616 36.6669 134.616 39.7532C134.616 42.8391 135.599 45.372 137.567 47.3524C139.533 49.3329 141.931 50.3225 144.76 50.3225C147.357 50.3225 149.588 49.5322 151.453 47.9506C153.318 46.3693 154.378 44.3186 154.635 41.7985H143.641V38.4039H158.492C158.544 38.8152 158.57 39.4452 158.57 40.294C158.57 42.8911 157.946 45.238 156.699 47.3338C155.451 49.4297 153.78 51.0619 151.684 52.2323C149.588 53.4023 147.281 53.9879 144.76 53.9879C142.883 53.9879 141.096 53.6336 139.399 52.9269C137.701 52.2194 136.235 51.2487 135.001 50.0141C133.767 48.7799 132.783 47.2693 132.051 45.4822C131.318 43.6947 130.951 41.786 130.951 39.754C130.951 37.7226 131.318 35.8129 132.051 34.0261C132.783 32.2394 133.767 30.728 135.001 29.4938C136.235 28.2596 137.701 27.2889 139.399 26.5822C141.096 25.8747 142.883 25.5212 144.76 25.5212C147.435 25.5212 149.878 26.2347 152.089 27.6618C154.301 29.0889 155.972 31.0246 157.104 33.4667L153.787 35.0868C152.963 33.2617 151.742 31.8217 150.122 30.7667C148.502 29.7125 146.715 29.1854 144.76 29.1854C141.931 29.1854 139.534 30.1758 137.567 32.1558V32.1547ZM173.651 29.8792H165.783V39.7923H173.651C175.246 39.7923 176.576 39.3104 177.643 38.3462C178.711 37.3816 179.244 36.1919 179.244 34.7777C179.244 33.3635 178.717 32.1931 177.663 31.2676C176.609 30.3421 175.272 29.8792 173.651 29.8792ZM175.272 43.0707L183.063 53.2926H178.704L171.106 43.3407H165.783V53.2926H162.119V26.2917H174.037C176.66 26.2917 178.82 27.0888 180.517 28.683C182.215 30.2772 183.063 32.3343 183.063 34.8551C183.063 37.041 182.324 38.9117 180.846 40.4671C179.367 42.0234 177.509 42.8911 175.272 43.0707ZM189.505 39.6765C189.505 42.7878 190.489 45.3401 192.456 47.3335C194.423 49.326 196.821 50.3221 199.649 50.3221C202.479 50.3221 204.876 49.326 206.844 47.3335C208.811 45.3401 209.795 42.7878 209.795 39.6765C209.795 36.6164 208.811 34.1028 206.844 32.1353C204.876 30.1682 202.479 29.1846 199.649 29.1846C196.821 29.1846 194.423 30.1682 192.456 32.1353C190.489 34.1028 189.505 36.6168 189.505 39.6765ZM185.84 39.6765C185.84 37.6444 186.207 35.7415 186.94 33.9676C187.673 32.1931 188.656 30.6953 189.89 29.474C191.125 28.252 192.591 27.2878 194.288 26.5811C195.985 25.8736 197.772 25.52 199.649 25.52C201.527 25.52 203.314 25.8736 205.012 26.5811C206.709 27.2878 208.174 28.252 209.409 29.474C210.644 30.6953 211.626 32.1931 212.36 33.9676C213.093 35.7419 213.46 37.6448 213.46 39.6765C213.46 41.7336 213.093 43.6555 212.36 45.443C211.626 47.2305 210.644 48.748 209.409 49.9948C208.174 51.2415 206.709 52.219 205.012 52.9265C203.314 53.6332 201.527 53.9875 199.649 53.9875C197.773 53.9875 195.985 53.6332 194.288 52.9265C192.591 52.219 191.125 51.2415 189.89 49.9948C188.656 48.748 187.673 47.2305 186.94 45.443C186.207 43.6555 185.84 41.734 185.84 39.6765ZM236.101 50.5925C233.967 52.6755 231.318 53.7167 228.155 53.7167C224.992 53.7167 222.343 52.6755 220.21 50.5925C218.075 48.5096 217.008 45.8866 217.008 42.724V26.2917H220.672V42.3378C220.672 44.7553 221.373 46.645 222.775 48.0083C224.175 49.3708 225.97 50.0525 228.155 50.0525C230.341 50.0525 232.135 49.3708 233.536 48.0083C234.937 46.645 235.639 44.7553 235.639 42.3378V26.2917H239.303V42.724C239.303 45.8866 238.235 48.5096 236.101 50.5925ZM254.693 29.8792H247.287V40.8719H254.693C256.468 40.8719 257.946 40.3384 259.129 39.2717C260.312 38.2038 260.903 36.8731 260.903 35.2789C260.903 33.736 260.312 32.4505 259.129 31.4214C257.946 30.3926 256.467 29.8792 254.693 29.8792ZM254.693 44.4207H247.287V53.2929H243.623V26.2921H255.079C257.805 26.2921 260.067 27.1469 261.868 28.8573C263.668 30.5673 264.568 32.708 264.568 35.2793C264.568 37.8248 263.61 39.9852 261.694 41.7598C259.778 43.5344 257.445 44.4207 254.693 44.4207Z" fill="#872129"/>
</svg>
