<svg width="265" height="67" viewBox="0 0 265 67" fill="none" xmlns="http://www.w3.org/2000/svg">
<path d="M51.7103 16.9085L34.7498 0H29.5445L32.4242 2.87132L9.21777 26.0617V31.2648L35.0224 5.47643L51.7103 22.1131V16.9085Z" fill="white"/>
<path d="M41.3389 53.7284V19.7252L46.0296 24.4163V19.3037L35.0224 8.29199L9.21777 34.0796V39.2826L16.2079 32.2966V58.5368L17.0023 58.9493C17.3798 59.1357 17.7679 59.3119 18.1655 59.4771C18.584 59.651 19.0074 59.8117 19.4309 59.9541L19.8832 60.1018V28.6236L26.9348 21.5769V60.9813C27.5268 60.9494 28.117 60.8894 28.7018 60.8066C29.3455 60.7147 29.982 60.5913 30.6104 60.4379V17.9032L35.0661 13.4517L37.6625 16.0492V57.164C37.9275 56.9711 38.1884 56.7721 38.4444 56.5663C39.0155 56.1083 39.5685 55.6108 40.1005 55.0796C40.3515 54.8282 40.5908 54.5772 40.8122 54.3311C40.9895 54.1393 41.1642 53.9376 41.3381 53.7284H41.3389Z" fill="#872129"/>
<path d="M51.7107 40.8331V24.9841L48.0351 21.3096V40.8331C48.0351 43.8214 47.4343 46.6798 46.3474 49.2906C45.2188 52.0036 43.5661 54.4492 41.5185 56.4964C39.4716 58.5437 37.0256 60.1967 34.3127 61.3254C31.7019 62.4118 28.8423 63.0126 25.8555 63.0126C22.8673 63.0126 20.0089 62.4122 17.398 61.3254C14.6851 60.1964 12.2395 58.5437 10.1922 56.4964C8.14496 54.4495 6.49189 52.0036 5.36326 49.2906C4.27679 46.6798 3.67602 43.8214 3.67602 40.8331V32.0015L0 28.3255V40.8331C0 47.9451 2.90967 54.4108 7.59394 59.0951C9.98297 61.4837 12.8345 63.4117 15.9949 64.7257C19.0348 65.9891 22.3671 66.6883 25.8555 66.6883C29.3436 66.6883 32.6755 65.9884 35.7159 64.7253C38.8765 63.4114 41.7285 61.483 44.1171 59.0951C46.5058 56.7057 48.4338 53.8541 49.7481 50.6938C51.0112 47.6539 51.7103 44.3215 51.7103 40.8331H51.7107Z" fill="white"/>
<path d="M82.022 50.5918C79.8874 52.6748 77.239 53.7161 74.0756 53.7161C70.913 53.7161 68.2639 52.6748 66.1304 50.5918C63.9958 48.5089 62.9287 45.8859 62.9287 42.7233V26.291H66.593V42.3371C66.593 44.7546 67.2936 46.6443 68.6949 48.0076C70.0962 49.3702 71.8905 50.0518 74.0756 50.0518C76.2622 50.0518 78.0554 49.3702 79.4564 48.0076C80.8577 46.6443 81.5594 44.7546 81.5594 42.3371V26.291H85.2237V42.7233C85.2237 45.8859 84.1558 48.5089 82.022 50.5918ZM89.5438 53.2919V26.291H93.8638L108.058 47.5834V26.291H111.723V53.2919H107.441L93.2084 31.7682V53.2919H89.5441H89.5438ZM119.707 53.2919H116.043V26.291H119.707V53.2919Z" fill="white"/>
<path d="M137.567 32.1542C135.599 34.1339 134.616 36.6664 134.616 39.7527C134.616 42.8386 135.599 45.3715 137.567 47.352C139.533 49.3324 141.931 50.322 144.76 50.322C147.357 50.322 149.588 49.5317 151.453 47.9501C153.318 46.3688 154.378 44.3181 154.635 41.7981H143.641V38.4034H158.492C158.544 38.8147 158.57 39.4447 158.57 40.2935C158.57 42.8906 157.946 45.2375 156.699 47.3333C155.451 49.4292 153.78 51.0614 151.684 52.2318C149.588 53.4018 147.281 53.9874 144.76 53.9874C142.883 53.9874 141.096 53.6331 139.399 52.9264C137.701 52.2189 136.235 51.2482 135.001 50.0137C133.767 48.7795 132.783 47.2688 132.051 45.4817C131.318 43.6942 130.951 41.7855 130.951 39.7535C130.951 37.7222 131.318 35.8124 132.051 34.0256C132.783 32.2389 133.767 30.7275 135.001 29.4933C136.235 28.2591 137.701 27.2884 139.399 26.5817C141.096 25.8742 142.883 25.5207 144.76 25.5207C147.435 25.5207 149.878 26.2342 152.089 27.6613C154.301 29.0885 155.972 31.0241 157.104 33.4663L153.787 35.0863C152.963 33.2612 151.742 31.8212 150.122 30.7662C148.502 29.712 146.715 29.1849 144.76 29.1849C141.931 29.1849 139.534 30.1753 137.567 32.1553V32.1542ZM173.651 29.8787H165.783V39.7918H173.651C175.246 39.7918 176.576 39.3099 177.643 38.3457C178.711 37.3811 179.244 36.1914 179.244 34.7772C179.244 33.363 178.717 32.1926 177.663 31.2671C176.609 30.3416 175.272 29.8787 173.651 29.8787ZM175.272 43.0702L183.063 53.2921H178.704L171.106 43.3402H165.783V53.2921H162.119V26.2912H174.037C176.66 26.2912 178.82 27.0883 180.517 28.6825C182.215 30.2767 183.063 32.3338 183.063 34.8546C183.063 37.0405 182.324 38.9112 180.846 40.4666C179.367 42.0229 177.509 42.8906 175.272 43.0702ZM189.505 39.676C189.505 42.7873 190.489 45.3396 192.456 47.333C194.423 49.3255 196.821 50.3216 199.649 50.3216C202.479 50.3216 204.876 49.3255 206.844 47.333C208.811 45.3396 209.795 42.7873 209.795 39.676C209.795 36.6159 208.811 34.1023 206.844 32.1348C204.876 30.1677 202.479 29.1842 199.649 29.1842C196.821 29.1842 194.423 30.1677 192.456 32.1348C190.489 34.1023 189.505 36.6163 189.505 39.676ZM185.84 39.676C185.84 37.6439 186.207 35.741 186.94 33.9672C187.673 32.1926 188.656 30.6948 189.89 29.4735C191.125 28.2515 192.591 27.2873 194.288 26.5806C195.985 25.8731 197.772 25.5195 199.649 25.5195C201.527 25.5195 203.314 25.8731 205.012 26.5806C206.709 27.2873 208.174 28.2515 209.409 29.4735C210.644 30.6948 211.626 32.1926 212.36 33.9672C213.093 35.7414 213.46 37.6443 213.46 39.676C213.46 41.7331 213.093 43.6551 212.36 45.4426C211.626 47.2301 210.644 48.7476 209.409 49.9943C208.174 51.241 206.709 52.2185 205.012 52.926C203.314 53.6327 201.527 53.987 199.649 53.987C197.773 53.987 195.985 53.6327 194.288 52.926C192.591 52.2185 191.125 51.241 189.89 49.9943C188.656 48.7476 187.673 47.2301 186.94 45.4426C186.207 43.6551 185.84 41.7335 185.84 39.676ZM236.101 50.592C233.967 52.675 231.318 53.7163 228.155 53.7163C224.992 53.7163 222.343 52.675 220.21 50.592C218.075 48.5091 217.008 45.8861 217.008 42.7235V26.2912H220.672V42.3373C220.672 44.7548 221.373 46.6445 222.775 48.0078C224.175 49.3703 225.97 50.052 228.155 50.052C230.341 50.052 232.135 49.3703 233.536 48.0078C234.937 46.6445 235.639 44.7548 235.639 42.3373V26.2912H239.303V42.7235C239.303 45.8861 238.235 48.5091 236.101 50.592ZM254.693 29.8787H247.287V40.8715H254.693C256.468 40.8715 257.946 40.3379 259.129 39.2712C260.312 38.2033 260.903 36.8727 260.903 35.2784C260.903 33.7355 260.312 32.45 259.129 31.4209C257.946 30.3922 256.467 29.8787 254.693 29.8787ZM254.693 44.4203H247.287V53.2924H243.623V26.2916H255.079C257.805 26.2916 260.067 27.1464 261.868 28.8568C263.668 30.5668 264.568 32.7075 264.568 35.2788C264.568 37.8243 263.61 39.9847 261.694 41.7593C259.778 43.5339 257.445 44.4203 254.693 44.4203Z" fill="#872129"/>
</svg>
