<svg width="460" height="478" viewBox="0 0 460 478" fill="none" xmlns="http://www.w3.org/2000/svg">
<path d="M73.4702 104.081L55.103 100.869L55.103 -8.39233e-05H73.4702L73.4702 104.081Z" fill="#90242E"/>
<path d="M18.3672 61.2266L-7.05719e-05 59.3369L-7.05719e-05 0.00236511L18.3672 0.00236511L18.3672 61.2266Z" fill="#90242E"/>
<path d="M128.573 159.184L110.205 154.271L110.205 0.000686646H128.573L128.573 159.184Z" fill="#90242E"/>
<path d="M183.676 214.287L165.309 207.673L165.309 0.00242615H183.676L183.676 214.287Z" fill="#90242E"/>
<path d="M238.778 269.39L220.411 261.075L220.411 0.00317383H238.778L238.778 269.39Z" fill="#90242E"/>
<path d="M293.881 324.492L275.514 314.477L275.514 0.00396729H293.881L293.881 324.492Z" fill="#90242E"/>
<path d="M348.973 379.591L330.605 367.875L330.605 0.000793457H348.973L348.973 379.591Z" fill="#90242E"/>
<path d="M404.075 434.693L385.708 421.277L385.708 0.00161743H404.075L404.075 434.693Z" fill="#90242E"/>
<path d="M459.178 477.546L440.811 477.546L440.811 2.86945H459.178L459.178 477.546Z" fill="#90242E"/>
</svg>
