<svg width="40" height="40" viewBox="0 0 40 40" fill="none" xmlns="http://www.w3.org/2000/svg">
<path fill-rule="evenodd" clip-rule="evenodd" d="M37.9775 0C38.5139 0 39.0283 0.213082 39.4076 0.592369C39.7869 0.971656 40 1.48608 40 2.02247V20C40 20.5364 39.7869 21.0508 39.4076 21.4301C39.0283 21.8094 38.5139 22.0225 37.9775 22.0225C37.4411 22.0225 36.9267 21.8094 36.5474 21.4301C36.1681 21.0508 35.9551 20.5364 35.9551 20V6.90337L6.90337 35.9551H20C20.5364 35.9551 21.0508 36.1681 21.4301 36.5474C21.8094 36.9267 22.0225 37.4411 22.0225 37.9775C22.0225 38.5139 21.8094 39.0283 21.4301 39.4076C21.0508 39.7869 20.5364 40 20 40H2.02247C1.48608 40 0.971656 39.7869 0.592369 39.4076C0.213082 39.0283 0 38.5139 0 37.9775V20C-7.91534e-09 19.7344 0.0523132 19.4714 0.153952 19.226C0.255591 18.9807 0.404565 18.7577 0.592369 18.5699C0.780173 18.3821 1.00313 18.2331 1.24851 18.1315C1.49388 18.0298 1.75688 17.9775 2.02247 17.9775C2.28807 17.9775 2.55106 18.0298 2.79644 18.1315C3.04182 18.2331 3.26477 18.3821 3.45258 18.5699C3.64038 18.7577 3.78935 18.9807 3.89099 19.226C3.99263 19.4714 4.04494 19.7344 4.04494 20V33.0966L33.0966 4.04494H20C19.4636 4.04494 18.9492 3.83186 18.5699 3.45258C18.1906 3.07329 17.9775 2.55887 17.9775 2.02247C17.9775 1.48608 18.1906 0.971656 18.5699 0.592369C18.9492 0.213082 19.4636 0 20 0H37.9775Z" fill="white"/>
</svg>
