<svg width="199" height="50" viewBox="0 0 199 50" fill="none" xmlns="http://www.w3.org/2000/svg">
<path d="M38.7771 12.6794L26.0587 0H22.1554L24.3148 2.15314L6.91284 19.5432V23.4448L26.2632 4.10666L38.7771 16.5821V12.6794Z" fill="black"/>
<path d="M30.9998 40.2896V14.7913L34.5172 18.3091V14.4752L26.2632 6.21777L6.91284 25.5553V29.4569L12.1546 24.2183V43.8953L12.7503 44.2046C13.0334 44.3444 13.3244 44.4765 13.6226 44.6004C13.9364 44.7308 14.2539 44.8513 14.5714 44.9581L14.9106 45.0689V21.464L20.1985 16.1799V45.7284C20.6424 45.7045 21.085 45.6595 21.5235 45.5974C22.0062 45.5285 22.4835 45.4359 22.9548 45.3209V13.425L26.296 10.0869L28.2429 12.0348V42.8659C28.4417 42.7212 28.6373 42.572 28.8293 42.4177C29.2576 42.0742 29.6722 41.7012 30.0711 41.3028C30.2594 41.1143 30.4388 40.926 30.6048 40.7415C30.7378 40.5977 30.8688 40.4465 30.9992 40.2896H30.9998Z" fill="#872129"/>
<path d="M38.7768 30.6198V18.7349L36.0205 15.9795V30.6198C36.0205 32.8606 35.57 35.0041 34.755 36.9619C33.9086 38.9963 32.6693 40.8302 31.1338 42.3654C29.5989 43.9006 27.7647 45.1402 25.7303 45.9865C23.7725 46.8012 21.6282 47.2517 19.3885 47.2517C17.1477 47.2517 15.0042 46.8015 13.0464 45.9865C11.012 45.1399 9.17812 43.9006 7.64293 42.3654C6.10773 40.8305 4.86813 38.9963 4.0218 36.9619C3.20707 35.0041 2.75657 32.8606 2.75657 30.6198V23.9972L0 21.2406V30.6198C0 35.9529 2.1819 40.8014 5.69453 44.3141C7.48602 46.1053 9.62435 47.551 11.9942 48.5363C14.2738 49.4838 16.7726 50.008 19.3885 50.008C22.0041 50.008 24.5027 49.4832 26.7826 48.536C29.1527 47.5507 31.2913 46.1047 33.0825 44.3141C34.8737 42.5223 36.3195 40.3839 37.3051 38.0141C38.2522 35.7345 38.7765 33.2357 38.7765 30.6198H38.7768Z" fill="black"/>
<path d="M61.5061 37.9385C59.9054 39.5005 57.9194 40.2813 55.5473 40.2813C53.1758 40.2813 51.1892 39.5005 49.5894 37.9385C47.9887 36.3765 47.1885 34.4096 47.1885 32.0381V19.7158H49.9362V31.7485C49.9362 33.5613 50.4616 34.9783 51.5124 36.0006C52.5632 37.0224 53.9088 37.5336 55.5473 37.5336C57.187 37.5336 58.5317 37.0224 59.5822 36.0006C60.633 34.9783 61.1593 33.5613 61.1593 31.7485V19.7158H63.907V32.0381C63.907 34.4096 63.1062 36.3765 61.5061 37.9385ZM67.1465 39.9632V19.7158H70.3861L81.0302 35.6826V19.7158H83.7785V39.9632H80.5674L69.8946 23.823V39.9632H67.1468H67.1465ZM89.7655 39.9632H87.0177V19.7158H89.7655V39.9632Z" fill="black"/>
<path d="M103.158 24.1119C101.683 25.5964 100.946 27.4956 100.946 29.8099C100.946 32.1239 101.683 34.0233 103.158 35.5084C104.633 36.9935 106.431 37.7356 108.553 37.7356C110.5 37.7356 112.173 37.143 113.571 35.9569C114.97 34.7711 115.765 33.2334 115.957 31.3436H107.714V28.7981H118.85C118.889 29.1065 118.908 29.5789 118.908 30.2154C118.908 32.1629 118.441 33.9228 117.505 35.4944C116.57 37.0661 115.316 38.29 113.745 39.1677C112.173 40.0451 110.443 40.4842 108.553 40.4842C107.145 40.4842 105.805 40.2185 104.532 39.6885C103.259 39.158 102.16 38.4301 101.235 37.5043C100.309 36.5788 99.5712 35.446 99.0219 34.1059C98.4726 32.7655 98.1975 31.3342 98.1975 29.8104C98.1975 28.2872 98.4726 26.8551 99.0219 25.5153C99.5712 24.1754 100.309 23.042 101.235 22.1165C102.16 21.191 103.259 20.4632 104.532 19.9332C105.805 19.4027 107.145 19.1376 108.553 19.1376C110.558 19.1376 112.39 19.6727 114.049 20.7428C115.707 21.813 116.96 23.2645 117.809 25.0958L115.321 26.3106C114.704 24.942 113.788 23.8622 112.574 23.0711C111.358 22.2806 110.018 21.8853 108.553 21.8853C106.431 21.8853 104.633 22.628 103.158 24.1128V24.1119ZM130.218 22.4056H124.317V29.8392H130.218C131.413 29.8392 132.411 29.4778 133.211 28.7548C134.012 28.0315 134.412 27.1393 134.412 26.0788C134.412 25.0183 134.016 24.1407 133.226 23.4467C132.435 22.7527 131.433 22.4056 130.218 22.4056ZM131.433 32.2976L137.275 39.9628H134.007L128.309 32.5001H124.317V39.9628H121.569V19.7154H130.507C132.473 19.7154 134.094 20.3131 135.366 21.5086C136.639 22.704 137.275 24.2466 137.275 26.1369C137.275 27.7761 136.721 29.1788 135.612 30.3452C134.504 31.5122 133.11 32.1632 131.433 32.2979V32.2976ZM142.106 29.7524C142.106 32.0855 142.844 33.9994 144.319 35.4942C145.794 36.9883 147.592 37.7353 149.713 37.7353C151.834 37.7353 153.632 36.9883 155.108 35.4942C156.583 33.9994 157.32 32.0855 157.32 29.7524C157.32 27.4577 156.583 25.5728 155.108 24.0974C153.632 22.6223 151.835 21.8847 149.713 21.8847C147.592 21.8847 145.794 22.6223 144.319 24.0974C142.844 25.5728 142.106 27.458 142.106 29.7524ZM139.358 29.7524C139.358 28.2286 139.633 26.8016 140.182 25.4714C140.732 24.1407 141.469 23.0176 142.395 22.1017C143.321 21.1853 144.42 20.4623 145.693 19.9324C146.965 19.4018 148.305 19.1367 149.713 19.1367C151.121 19.1367 152.461 19.4018 153.734 19.9324C155.007 20.4623 156.105 21.1853 157.031 22.1017C157.957 23.0176 158.694 24.1407 159.244 25.4714C159.794 26.8019 160.069 28.2288 160.069 29.7524C160.069 31.2949 159.794 32.7362 159.244 34.0766C158.694 35.417 157.957 36.5549 157.031 37.4898C156.105 38.4247 155.007 39.1577 153.734 39.6882C152.461 40.2182 151.121 40.4839 149.713 40.4839C148.306 40.4839 146.965 40.2182 145.693 39.6882C144.42 39.1577 143.321 38.4247 142.395 37.4898C141.469 36.5549 140.732 35.417 140.182 34.0766C139.633 32.7362 139.358 31.2952 139.358 29.7524ZM177.047 37.938C175.447 39.5 173.461 40.2808 171.088 40.2808C168.717 40.2808 166.731 39.5 165.131 37.938C163.53 36.3761 162.73 34.4092 162.73 32.0376V19.7154H165.477V31.748C165.477 33.5609 166.003 34.9779 167.054 36.0002C168.104 37.0219 169.45 37.5331 171.088 37.5331C172.728 37.5331 174.073 37.0219 175.123 36.0002C176.174 34.9779 176.7 33.5609 176.7 31.748V19.7154H179.448V32.0376C179.448 34.4092 178.647 36.3761 177.047 37.938ZM190.989 22.4056H185.435V30.6488H190.989C192.32 30.6488 193.428 30.2487 194.315 29.4488C195.202 28.648 195.646 27.6502 195.646 26.4547C195.646 25.2977 195.202 24.3338 194.315 23.562C193.428 22.7906 192.319 22.4053 190.989 22.4053V22.4056ZM190.989 33.31H185.435V39.963H182.688V19.7157H191.278C193.322 19.7157 195.019 20.3567 196.369 21.6393C197.719 22.9216 198.394 24.5268 198.394 26.455C198.394 28.3638 197.675 29.9839 196.239 31.3146C194.802 32.6453 193.052 33.3103 190.989 33.3103V33.31Z" fill="#872129"/>
</svg>
