<svg width="25" height="25" viewBox="0 0 25 25" fill="none" xmlns="http://www.w3.org/2000/svg">
<path d="M3.93026 3.93169C3.45271 4.41619 3.13897 5.09643 2.96405 6.3889C2.78497 7.72856 2.78358 9.50274 2.78358 12.0557V12.9442C2.78358 15.4931 2.78497 17.2658 2.96405 18.6041C3.13758 19.898 3.45271 20.5824 3.93165 21.071C4.41754 21.5472 5.09777 21.8624 6.38883 22.0359C7.72848 22.215 9.50265 22.2177 12.0556 22.2177H12.9441C15.4929 22.2177 17.2657 22.215 18.6053 22.0359C19.8978 21.8624 20.5822 21.5472 21.0708 21.0683C21.547 20.5838 21.8621 19.9035 22.0357 18.6111C22.2161 17.2714 22.2175 15.4972 22.2175 12.9442V12.0557C22.2175 9.50691 22.2148 7.73411 22.0371 6.39584C21.8621 5.10199 21.547 4.41758 21.0681 3.92891C20.5836 3.45274 19.9033 3.13761 18.6109 2.96408C17.2712 2.78499 15.4971 2.78222 12.9441 2.78222H12.0556C9.50682 2.78222 7.73404 2.78499 6.39578 2.96408C5.10194 3.13761 4.41892 3.45274 3.93026 3.93169ZM12.0556 0.00571276H12.9441C14.9501 0.00571276 16.9866 -0.0539822 18.9788 0.212562C20.5836 0.427741 21.9427 0.887253 23.0283 1.96176L23.0394 1.97425C24.1125 3.06264 24.5734 4.42174 24.7885 6.02795C25.0537 8.01731 24.994 10.0525 24.994 12.0557V12.9442C24.994 14.9489 25.0551 16.9854 24.7872 18.979C24.5734 20.5838 24.1125 21.9429 23.038 23.0285L23.0255 23.0396C21.9385 24.1127 20.5794 24.5722 18.9718 24.7888C16.9825 25.0539 14.9473 24.9942 12.9441 24.9942H12.0556C10.051 24.9942 8.01446 25.0539 6.02234 24.7874C4.41615 24.5722 3.05706 24.1127 1.97285 23.0382L1.96035 23.0257C0.888633 21.9373 0.427737 20.5782 0.21256 18.972C-0.0539817 16.984 0.0057127 14.9489 0.0057127 12.9442V12.0557C0.0057127 10.0511 -0.0539814 8.01454 0.213949 6.02101C0.427737 4.41619 0.888632 3.05709 1.96313 1.97148L1.97424 1.96037C3.06261 0.887253 4.4217 0.427741 6.02789 0.211174C8.01863 -0.0525938 10.0538 0.00571276 12.0556 0.00571276ZM4.22041 7.61056C4.35368 14.1076 7.60215 18.0058 13.2995 18.0058H13.6327V14.2908C15.7234 14.4991 17.3059 16.0317 17.939 18.0058H20.8959C20.5928 16.884 20.0552 15.8392 19.3187 14.9403C18.5821 14.0415 17.6633 13.3092 16.6229 12.7915C17.555 12.2237 18.36 11.4698 18.9877 10.577C19.6155 9.68415 20.0524 8.67148 20.2712 7.60223H17.5891C17.0061 9.66795 15.2736 11.5421 13.6327 11.717V7.61056H10.9423V14.8073C9.27637 14.3908 7.17735 12.375 7.08573 7.61056H4.22041Z" fill="black"/>
</svg>
